<svg xmlns="http://www.w3.org/2000/svg" version="1.1" xmlns:xlink="http://www.w3.org/1999/xlink" xmlns:svgjs="http://svgjs.dev/svgjs" viewBox="0 0 800 800"><defs><linearGradient x1="50%" y1="0%" x2="50%" y2="100%" id="ffflurry-grad" gradientTransform="rotate(270)"><stop stop-color="hsl(204, 36%, 10%)" stop-opacity="1" offset="0%"></stop><stop stop-color="hsl(1.4, 100%, 67%)" stop-opacity="1" offset="45%"></stop><stop stop-color="hsl(167, 52%, 78%)" stop-opacity="1" offset="100%"></stop></linearGradient></defs><rect width="100%" height="100%" fill="hsl(204, 36%, 10%)"></rect><g fill="url(#ffflurry-grad)"><rect width="64" height="2" x="111" y="734" rx="1" transform="rotate(52, 143, 735)" opacity="0.41"></rect><rect width="124" height="2" x="260" y="123" rx="1" transform="rotate(52, 322, 124)" opacity="0.08"></rect><rect width="168" height="2" x="537" y="167" rx="1" transform="rotate(52, 621, 168)" opacity="0.11"></rect><rect width="128" height="2" x="364" y="438" rx="1" transform="rotate(52, 428, 439)" opacity="0.45"></rect><rect width="119" height="2" x="106.5" y="345" rx="1" transform="rotate(52, 166, 346)" opacity="0.65"></rect><rect width="99" height="2" x="456.5" y="699" rx="1" transform="rotate(52, 506, 700)" opacity="0.46"></rect><rect width="93" height="2" x="659.5" y="700" rx="1" transform="rotate(52, 706, 701)" opacity="0.12"></rect><rect width="116" height="2" x="625" y="465" rx="1" transform="rotate(52, 683, 466)" opacity="0.34"></rect><rect width="102" height="2" x="264" y="639" rx="1" transform="rotate(52, 315, 640)" opacity="0.90"></rect><rect width="103" height="2" x="44.5" y="557" rx="1" transform="rotate(52, 96, 558)" opacity="0.62"></rect><rect width="95" height="2" x="37.5" y="121" rx="1" transform="rotate(52, 85, 122)" opacity="0.85"></rect></g></svg>